<?xml version="1.0" encoding="UTF-8" standalone="no"?>
<svg
   xmlns:dc="http://purl.org/dc/elements/1.1/"
   xmlns:cc="http://creativecommons.org/ns#"
   xmlns:rdf="http://www.w3.org/1999/02/22-rdf-syntax-ns#"
   xmlns:svg="http://www.w3.org/2000/svg"
   xmlns="http://www.w3.org/2000/svg"
   xmlns:sodipodi="http://sodipodi.sourceforge.net/DTD/sodipodi-0.dtd"
   xmlns:inkscape="http://www.inkscape.org/namespaces/inkscape"
   id="Layer_1"
   data-name="Layer 1"
   viewBox="0 0 512 512"
   version="1.1"
   sodipodi:docname="13c01dc9-e5ae-4e19-9a47-932829260510.svg"
   inkscape:version="0.92.3 (2405546, 2018-03-11)">
  <metadata
     id="metadata21">
    <rdf:RDF>
      <cc:Work
         rdf:about="">
        <dc:format>image/svg+xml</dc:format>
        <dc:type
           rdf:resource="http://purl.org/dc/dcmitype/StillImage" />
      </cc:Work>
    </rdf:RDF>
  </metadata>
  <sodipodi:namedview
     pagecolor="#ffffff"
     bordercolor="#666666"
     borderopacity="1"
     objecttolerance="10"
     gridtolerance="10"
     guidetolerance="10"
     inkscape:pageopacity="0"
     inkscape:pageshadow="2"
     inkscape:window-width="1920"
     inkscape:window-height="1043"
     id="namedview19"
     showgrid="false"
     inkscape:zoom="0.4609375"
     inkscape:cx="32.542373"
     inkscape:cy="256"
     inkscape:window-x="0"
     inkscape:window-y="0"
     inkscape:window-maximized="1"
     inkscape:current-layer="Layer_1" />
  <defs
     id="defs4">
    <style
       id="style2">.cls-1{fill:#79d3d3;}.cls-2{fill:#d9e4e8;}.cls-3{fill:#141f38;}.cls-4{opacity:0.14;}.cls-5{fill:#17292d;}</style>
  </defs>
  <title
     id="title6">beer-1-filled</title>
  <path
     class="cls-1"
     d="M172.11,499.2a19.15,19.15,0,0,1-18.79-23.07c10.07-47.81,15.45-121.21-16.09-199.32-19-47-25.82-107.07-20-174.41H394.71c5.86,67.34-1,127.44-20,174.41-31.54,78.12-26.16,151.51-16.09,199.32a19.15,19.15,0,0,1-18.79,23.07Z"
     id="path8"
     style="fill:#000000" />
  <path
     class="cls-3"
     d="M406.33,89.6h0a639.63,639.63,0,0,0-10.18-64.29A32,32,0,0,0,364.82,0H147.17a32,32,0,0,0-31.3,25.31A639.63,639.63,0,0,0,105.69,89.6h0c-6.11,57.1-5.66,129.14,19.71,192,30.44,75.4,25,146.33,15.43,191.89A32,32,0,0,0,172.11,512H339.87a32,32,0,0,0,31.32-38.51c-9.59-45.57-15-116.49,15.43-191.89C412,218.74,412.44,146.7,406.33,89.6Zm-265.42-59a6.32,6.32,0,0,1,6.25-5H364.82a6.32,6.32,0,0,1,6.25,5c3.06,14.47,6.82,35,9.48,59H131.44C134.1,65.63,137.85,45.09,140.92,30.62Zm222,241.4c-32.74,81.1-27.18,157.19-16.74,206.75a6.12,6.12,0,0,1-1.27,5.26,6.24,6.24,0,0,1-5,2.37H172.11a6.24,6.24,0,0,1-5-2.37,6.11,6.11,0,0,1-1.27-5.26c10.43-49.56,16-125.65-16.75-206.75-17.12-42.4-23.93-96.25-20-156.82H382.85C386.82,175.76,380,229.61,362.88,272Z"
     id="path12"
     style="fill:#000000" />
  <g
     class="cls-4"
     id="g16">
    <path
       class="cls-5"
       d="M396.12,25.31A32,32,0,0,0,364.82,0h-64a32,32,0,0,1,31.3,25.31c12,56.59,27,166-9.49,256.29-30.44,75.4-25,146.33-15.43,191.89A32,32,0,0,1,275.87,512h64a32,32,0,0,0,31.32-38.51c-9.59-45.57-15-116.49,15.43-191.89C423.08,191.28,408.1,81.9,396.12,25.31Z"
       id="path14" />
  </g>
  <path
     style="fill:#000000;fill-opacity:0;stroke:#000000;stroke-width:16.39930725;stroke-miterlimit:4;stroke-dasharray:none;stroke-opacity:0"
     d="m 168.68337,483.69354 c -1.58375,-1.58375 -1.29401,-7.33748 0.95592,-18.98305 2.12402,-10.99392 3.30965,-31.55393 3.46577,-60.10032 0.29521,-53.97565 -2.61163,-71.3267 -21.44394,-128 C 134.22177,224.1288 130.49906,202.87471 130.19157,154.0339 l -0.23903,-37.9661 106.16415,-0.56325 c 83.49301,-0.44297 106.53462,0.0203 107.89897,2.16949 2.4537,3.86508 2.21226,44.76294 -0.4214,71.38423 -3.77555,38.16367 -8.39687,57.24716 -25.93014,107.07732 -11.40446,32.41188 -15.3918,54.9504 -16.69571,94.37288 -0.73879,22.33668 -0.24294,41.91478 1.31872,52.0678 1.37649,8.94915 3.08103,22.37288 3.78786,29.83051 l 1.28516,13.55932 h -68.20211 c -44.63753,0 -68.9873,-0.7852 -70.47467,-2.27256 z"
     id="path840"
     inkscape:connector-curvature="0" />
  <path
     style="fill:#000000;fill-opacity:0;stroke:#000000;stroke-width:16.39930725;stroke-miterlimit:4;stroke-dasharray:none;stroke-opacity:0"
     d="m 168.68337,483.69354 c -1.58375,-1.58375 -1.29401,-7.33748 0.95592,-18.98305 2.12402,-10.99392 3.30965,-31.55393 3.46577,-60.10032 0.29521,-53.97565 -2.61163,-71.3267 -21.44394,-128 C 134.22177,224.1288 130.49906,202.87471 130.19157,154.0339 l -0.23903,-37.9661 106.16415,-0.56325 c 83.49301,-0.44297 106.53462,0.0203 107.89897,2.16949 2.4537,3.86508 2.21226,44.76294 -0.4214,71.38423 -3.77555,38.16367 -8.39687,57.24716 -25.93014,107.07732 -11.40446,32.41188 -15.3918,54.9504 -16.69571,94.37288 -0.73879,22.33668 -0.24294,41.91478 1.31872,52.0678 1.37649,8.94915 3.08103,22.37288 3.78786,29.83051 l 1.28516,13.55932 h -68.20211 c -44.63753,0 -68.9873,-0.7852 -70.47467,-2.27256 z"
     id="path842"
     inkscape:connector-curvature="0" />
  <path
     style="fill:#000000;fill-opacity:0;stroke:#000000;stroke-width:16.39930725;stroke-miterlimit:4;stroke-dasharray:none;stroke-opacity:0"
     d="m 168.68337,483.69354 c -1.58375,-1.58375 -1.29401,-7.33748 0.95592,-18.98305 2.12402,-10.99392 3.30965,-31.55393 3.46577,-60.10032 0.29521,-53.97565 -2.61163,-71.3267 -21.44394,-128 C 134.22177,224.1288 130.49906,202.87471 130.19157,154.0339 l -0.23903,-37.9661 106.16415,-0.56325 c 83.49301,-0.44297 106.53462,0.0203 107.89897,2.16949 2.4537,3.86508 2.21226,44.76294 -0.4214,71.38423 -3.77555,38.16367 -8.39687,57.24716 -25.93014,107.07732 -11.40446,32.41188 -15.3918,54.9504 -16.69571,94.37288 -0.73879,22.33668 -0.24294,41.91478 1.31872,52.0678 1.37649,8.94915 3.08103,22.37288 3.78786,29.83051 l 1.28516,13.55932 h -68.20211 c -44.63753,0 -68.9873,-0.7852 -70.47467,-2.27256 z"
     id="path844"
     inkscape:connector-curvature="0" />
  <path
     style="fill:#000000;fill-opacity:0;stroke:#000000;stroke-width:16.39930725;stroke-miterlimit:4;stroke-dasharray:none;stroke-opacity:0"
     d="m 168.68337,483.69354 c -1.58375,-1.58375 -1.29401,-7.33748 0.95592,-18.98305 2.12402,-10.99392 3.30965,-31.55393 3.46577,-60.10032 0.29521,-53.97565 -2.61163,-71.3267 -21.44394,-128 C 134.22177,224.1288 130.49906,202.87471 130.19157,154.0339 l -0.23903,-37.9661 106.16415,-0.56325 c 83.49301,-0.44297 106.53462,0.0203 107.89897,2.16949 2.4537,3.86508 2.21226,44.76294 -0.4214,71.38423 -3.77555,38.16367 -8.39687,57.24716 -25.93014,107.07732 -11.40446,32.41188 -15.3918,54.9504 -16.69571,94.37288 -0.73879,22.33668 -0.24294,41.91478 1.31872,52.0678 1.37649,8.94915 3.08103,22.37288 3.78786,29.83051 l 1.28516,13.55932 h -68.20211 c -44.63753,0 -68.9873,-0.7852 -70.47467,-2.27256 z"
     id="path846"
     inkscape:connector-curvature="0" />
  <path
     style="fill:#000000;fill-opacity:0;stroke:#000000;stroke-width:16.39930725;stroke-miterlimit:4;stroke-dasharray:none;stroke-opacity:0"
     d="m 168.68337,483.69354 c -1.58375,-1.58375 -1.29401,-7.33748 0.95592,-18.98305 2.12402,-10.99392 3.30965,-31.55393 3.46577,-60.10032 0.29521,-53.97565 -2.61163,-71.3267 -21.44394,-128 C 134.22177,224.1288 130.49906,202.87471 130.19157,154.0339 l -0.23903,-37.9661 106.16415,-0.56325 c 83.49301,-0.44297 106.53462,0.0203 107.89897,2.16949 2.4537,3.86508 2.21226,44.76294 -0.4214,71.38423 -3.77555,38.16367 -8.39687,57.24716 -25.93014,107.07732 -11.40446,32.41188 -15.3918,54.9504 -16.69571,94.37288 -0.73879,22.33668 -0.24294,41.91478 1.31872,52.0678 1.37649,8.94915 3.08103,22.37288 3.78786,29.83051 l 1.28516,13.55932 h -68.20211 c -44.63753,0 -68.9873,-0.7852 -70.47467,-2.27256 z"
     id="path848"
     inkscape:connector-curvature="0" />
  <path
     style="fill:#000000;fill-opacity:0;stroke:#000000;stroke-width:16.39930725;stroke-miterlimit:4;stroke-dasharray:none;stroke-opacity:0"
     d="m 168.68337,483.69354 c -1.58375,-1.58375 -1.29401,-7.33748 0.95592,-18.98305 2.12402,-10.99392 3.30965,-31.55393 3.46577,-60.10032 0.29521,-53.97565 -2.61163,-71.3267 -21.44394,-128 C 134.22177,224.1288 130.49906,202.87471 130.19157,154.0339 l -0.23903,-37.9661 106.16415,-0.56325 c 83.49301,-0.44297 106.53462,0.0203 107.89897,2.16949 2.4537,3.86508 2.21226,44.76294 -0.4214,71.38423 -3.77555,38.16367 -8.39687,57.24716 -25.93014,107.07732 -11.40446,32.41188 -15.3918,54.9504 -16.69571,94.37288 -0.73879,22.33668 -0.24294,41.91478 1.31872,52.0678 1.37649,8.94915 3.08103,22.37288 3.78786,29.83051 l 1.28516,13.55932 h -68.20211 c -44.63753,0 -68.9873,-0.7852 -70.47467,-2.27256 z"
     id="path850"
     inkscape:connector-curvature="0" />
  <path
     style="fill:#000000;fill-opacity:0;stroke:#000000;stroke-width:16.39930725;stroke-miterlimit:4;stroke-dasharray:none;stroke-opacity:0"
     d="m 168.68337,483.69354 c -1.58375,-1.58375 -1.29401,-7.33748 0.95592,-18.98305 2.12402,-10.99392 3.30965,-31.55393 3.46577,-60.10032 0.29521,-53.97565 -2.61163,-71.3267 -21.44394,-128 C 134.22177,224.1288 130.49906,202.87471 130.19157,154.0339 l -0.23903,-37.9661 106.16415,-0.56325 c 83.49301,-0.44297 106.53462,0.0203 107.89897,2.16949 2.4537,3.86508 2.21226,44.76294 -0.4214,71.38423 -3.77555,38.16367 -8.39687,57.24716 -25.93014,107.07732 -11.40446,32.41188 -15.3918,54.9504 -16.69571,94.37288 -0.73879,22.33668 -0.24294,41.91478 1.31872,52.0678 1.37649,8.94915 3.08103,22.37288 3.78786,29.83051 l 1.28516,13.55932 h -68.20211 c -44.63753,0 -68.9873,-0.7852 -70.47467,-2.27256 z"
     id="path852"
     inkscape:connector-curvature="0" />
  <path
     style="fill:#000000;fill-opacity:0;stroke:#000000;stroke-width:16.39930725;stroke-miterlimit:4;stroke-dasharray:none;stroke-opacity:0"
     d="m 168.68337,483.69354 c -1.58375,-1.58375 -1.29401,-7.33748 0.95592,-18.98305 2.12402,-10.99392 3.30965,-31.55393 3.46577,-60.10032 0.29521,-53.97565 -2.61163,-71.3267 -21.44394,-128 C 134.22177,224.1288 130.49906,202.87471 130.19157,154.0339 l -0.23903,-37.9661 106.16415,-0.56325 c 83.49301,-0.44297 106.53462,0.0203 107.89897,2.16949 2.4537,3.86508 2.21226,44.76294 -0.4214,71.38423 -3.77555,38.16367 -8.39687,57.24716 -25.93014,107.07732 -11.40446,32.41188 -15.3918,54.9504 -16.69571,94.37288 -0.73879,22.33668 -0.24294,41.91478 1.31872,52.0678 1.37649,8.94915 3.08103,22.37288 3.78786,29.83051 l 1.28516,13.55932 h -68.20211 c -44.63753,0 -68.9873,-0.7852 -70.47467,-2.27256 z"
     id="path854"
     inkscape:connector-curvature="0" />
  <path
     style="fill:#000000;fill-opacity:0;stroke:#000000;stroke-width:16.39930725;stroke-miterlimit:4;stroke-dasharray:none;stroke-opacity:0"
     d="m 168.68337,483.69354 c -1.58375,-1.58375 -1.29401,-7.33748 0.95592,-18.98305 2.12402,-10.99392 3.30965,-31.55393 3.46577,-60.10032 0.29521,-53.97565 -2.61163,-71.3267 -21.44394,-128 C 134.22177,224.1288 130.49906,202.87471 130.19157,154.0339 l -0.23903,-37.9661 106.16415,-0.56325 c 83.49301,-0.44297 106.53462,0.0203 107.89897,2.16949 2.4537,3.86508 2.21226,44.76294 -0.4214,71.38423 -3.77555,38.16367 -8.39687,57.24716 -25.93014,107.07732 -11.40446,32.41188 -15.3918,54.9504 -16.69571,94.37288 -0.73879,22.33668 -0.24294,41.91478 1.31872,52.0678 1.37649,8.94915 3.08103,22.37288 3.78786,29.83051 l 1.28516,13.55932 h -68.20211 c -44.63753,0 -68.9873,-0.7852 -70.47467,-2.27256 z"
     id="path856"
     inkscape:connector-curvature="0" />
</svg>
